<?xml version="1.0"?>
<svg xmlns="http://www.w3.org/2000/svg" xmlns:xlink="http://www.w3.org/1999/xlink" xmlns:svgjs="http://svgjs.com/svgjs" version="1.1" width="512" height="512" x="0" y="0" viewBox="0 0 24 24" style="enable-background:new 0 0 512 512" xml:space="preserve"><g><path xmlns="http://www.w3.org/2000/svg" d="m0 9v14h24v-14zm15 10h-10v-2h10zm4-4h-14v-2h14zm2-14h-18a3 3 0 0 0 -3 3v3h24v-3a3 3 0 0 0 -3-3zm-17 4a1 1 0 1 1 1-1 1 1 0 0 1 -1 1zm3 0a1 1 0 1 1 1-1 1 1 0 0 1 -1 1zm3 0a1 1 0 1 1 1-1 1 1 0 0 1 -1 1z" fill="#ff0092" data-original="#000000"/></g></svg>
